# xmcd
#
# Track frame offsets:
#	150
#	9978
#	26438
#	39812
#	52461
#	64567
#	75329
#	87000
#	98065
#	108761
#	121926
#	134199
#	146894
#	156492
#	166090
#	177663
#	189846
#	201395
#	215145
#	230480
#	240824
#	253355
#	267429
#	276404
#	288712
#	300978
#	313276
#	328712
#	338262
#
# Disc length: 4668 seconds
#
# Revision: 0
# Processed by: cddbd v1.5.1PL2 Copyright (c) Steve Scherf et al.
# Submitted via: dBpowerAMP V4.0
#
DISCID=a5123a1d
DTITLE=Jimmy Martin - Jimmy Martin and The Sunny Mountain Boys 1954-1981 - CD2
DYEAR=1994
DGENRE=Bluegrass
TTITLE0=God Is Always the Same
TTITLE1=All the Good Times Are Past and Gone
TTITLE2=You Don't Know My Mind
TTITLE3=Homesick
TTITLE4=Old Fashioned Christmas
TTITLE5=Hi-De Diddle
TTITLE6=Don't Cry to Me
TTITLE7=My Walking Shoes
TTITLE8=Hold to God's Unchanging Hands
TTITLE9=Undo What's Been Done
TTITLE10=Deep River
TTITLE11=What Was I Supposed to Do
TTITLE12=I Can, I Will, I Do Believe
TTITLE13=There Was a Love
TTITLE14=Poor Little Bull Frog
TTITLE15=Steppin' Stones
TTITLE16=There Ain't Nobody Gonna Miss Me When I'm
TTITLE17=Little Angels in Heaven
TTITLE18=Pretending I Don't Care
TTITLE19=Leavin' Town
TTITLE20=Don't Give Your Heart to a Rambler
TTITLE21=God Guide Our Leader's Hand
TTITLE22=Train 45
TTITLE23=Mr. Engineer
TTITLE24=This World Is Not My Home
TTITLE25=Drink Up and Go Home
TTITLE26=Lord I'm Coming Home
TTITLE27=Goodbye
TTITLE28=Pray the Clouds Away
EXTD=Bear Family 1994 (5 CD's)
EXTT0=
EXTT1=
EXTT2=
EXTT3=
EXTT4=
EXTT5=
EXTT6=
EXTT7=
EXTT8=
EXTT9=
EXTT10=
EXTT11=
EXTT12=
EXTT13=
EXTT14=
EXTT15=
EXTT16=
EXTT17=
EXTT18=
EXTT19=
EXTT20=
EXTT21=
EXTT22=
EXTT23=
EXTT24=
EXTT25=
EXTT26=
EXTT27=
EXTT28=
PLAYORDER=
